<svg width="495" height="451" viewBox="0 0 495 451" fill="none" xmlns="http://www.w3.org/2000/svg">
<g id="carAnimation">
<g id="background">
<g id="&#235;&#160;&#136;&#236;&#157;&#180;&#236;&#150;&#180; 1">
<path id="Vector" d="M445.386 14.58C445.389 18.0703 444.139 21.4458 441.863 24.0922C439.588 26.7386 436.437 28.4802 432.986 29C432.278 29.1091 431.562 29.1626 430.846 29.16H158.566C157.85 29.1626 157.134 29.1091 156.426 29C152.788 28.4565 149.489 26.5578 147.192 23.6845C144.895 20.8112 143.769 17.1757 144.04 13.507C144.31 9.83829 145.958 6.40751 148.652 3.90252C151.346 1.39754 154.887 0.0035376 158.566 0L430.806 0C434.673 0 438.381 1.5361 441.116 4.27038C443.85 7.00466 445.386 10.7131 445.386 14.58V14.58Z" fill="#F7F8F9"/>
<path id="Vector_2" d="M489.386 43.58C489.386 47.4469 487.85 51.1553 485.116 53.8896C482.381 56.6239 478.673 58.16 474.806 58.16H183.566C182.85 58.1626 182.134 58.1091 181.426 58H233.986C237.441 57.4838 240.596 55.7442 242.877 53.0976C245.157 50.4511 246.412 47.0736 246.412 43.58C246.412 40.0864 245.157 36.7089 242.877 34.0624C240.596 31.4158 237.441 29.6761 233.986 29.16H181.426C182.134 29.0509 182.85 28.9974 183.566 29H474.806C478.673 29 482.381 30.5361 485.116 33.2704C487.85 36.0047 489.386 39.7131 489.386 43.58V43.58Z" fill="#F7F8F9"/>
<path id="Vector_3" d="M432.386 72.58C432.386 76.4469 430.85 80.1553 428.116 82.8896C425.381 85.6239 421.673 87.16 417.806 87.16H87.566C83.8873 87.1565 80.3459 85.7625 77.6519 83.2575C74.9578 80.7525 73.3103 77.3217 73.0396 73.653C72.7688 69.9843 73.8949 66.3488 76.1921 63.4755C78.4893 60.6022 81.7877 58.7035 85.426 58.16C86.1341 58.0509 86.8496 57.9974 87.566 58H417.806C418.522 57.9974 419.238 58.0509 419.946 58.16C423.404 58.6731 426.562 60.4114 428.846 63.0583C431.129 65.7051 432.385 69.0843 432.386 72.58V72.58Z" fill="#F7F8F9"/>
</g>
</g>
<g id="wheels">
<g id="&#235;&#160;&#136;&#236;&#157;&#180;&#236;&#150;&#180; 1_2">
<path id="Vector_4" d="M298.18 450.2C314.472 450.2 327.68 436.992 327.68 420.7C327.68 404.408 314.472 391.2 298.18 391.2C281.888 391.2 268.68 404.408 268.68 420.7C268.68 436.992 281.888 450.2 298.18 450.2Z" fill="#3A3A3A"/>
<path id="Vector_5" d="M430.18 450.2C446.472 450.2 459.68 436.992 459.68 420.7C459.68 404.408 446.472 391.2 430.18 391.2C413.888 391.2 400.68 404.408 400.68 420.7C400.68 436.992 413.888 450.2 430.18 450.2Z" fill="#3A3A3A"/>
<path id="Vector_6" d="M231.5 450C247.792 450 261 436.792 261 420.5C261 404.208 247.792 391 231.5 391C215.208 391 202 404.208 202 420.5C202 436.792 215.208 450 231.5 450Z" fill="#3A3A3A"/>
<path id="Vector_7" d="M226.74 437.47C236.399 437.47 244.23 429.639 244.23 419.98C244.23 410.321 236.399 402.49 226.74 402.49C217.081 402.49 209.25 410.321 209.25 419.98C209.25 429.639 217.081 437.47 226.74 437.47Z" fill="#F7F8F9"/>
<path id="Vector_8" d="M364.18 450.2C380.472 450.2 393.68 436.992 393.68 420.7C393.68 404.408 380.472 391.2 364.18 391.2C347.888 391.2 334.68 404.408 334.68 420.7C334.68 436.992 347.888 450.2 364.18 450.2Z" fill="#3A3A3A"/>
<path id="Vector_9" d="M359.42 437.67C369.079 437.67 376.91 429.839 376.91 420.18C376.91 410.521 369.079 402.69 359.42 402.69C349.761 402.69 341.93 410.521 341.93 420.18C341.93 429.839 349.761 437.67 359.42 437.67Z" fill="#F7F8F9"/>
</g>
</g>
<g id="note-1">
<g id="&#235;&#160;&#136;&#236;&#157;&#180;&#236;&#150;&#180; 1_3">
<path id="Vector_10" d="M40.3501 263.274L37.687 259.251C37.6381 259.173 37.5736 259.105 37.4975 259.052C37.4213 258.999 37.3352 258.962 37.2443 258.944C37.1534 258.926 37.0598 258.926 36.9691 258.946C36.8785 258.965 36.7928 259.003 36.7173 259.057L18.3552 271.245C18.2012 271.344 18.0684 271.472 17.9647 271.622C17.8609 271.772 17.7883 271.942 17.7511 272.121C17.7139 272.299 17.7129 272.484 17.7481 272.663C17.7833 272.842 17.8541 273.013 17.9561 273.164L20.6191 277.187L23.0989 280.913L23.854 282.061L49.5915 320.86C45.6894 319.524 41.4132 319.629 35.8977 323.29C28.4455 328.223 25.8544 334.945 28.697 339.227C31.5397 343.51 38.7253 343.737 46.1519 338.802C53.5784 333.867 55.6234 327.529 52.7818 323.221C52.7174 323.127 52.6472 323.036 52.5718 322.95V322.95L25.0128 281.302L43.4005 269.114C43.5518 269.012 43.6566 268.855 43.692 268.676C43.7274 268.497 43.6906 268.311 43.5896 268.159V268.159C43.5399 268.083 43.4757 268.017 43.4005 267.966C43.3253 267.914 43.2407 267.878 43.1515 267.86C43.0623 267.841 42.9703 267.84 42.8809 267.858C42.7914 267.875 42.7063 267.91 42.6303 267.96L24.2577 280.153L21.8152 276.397L40.161 264.228C40.2371 264.179 40.3026 264.115 40.3534 264.04C40.4043 263.965 40.4396 263.88 40.4573 263.791C40.4749 263.702 40.4745 263.611 40.4561 263.522C40.4376 263.433 40.4016 263.349 40.3501 263.274V263.274Z" fill="url(#paint0_radial)"/>
</g>
</g>
<g id="note-2">
<g id="&#235;&#160;&#136;&#236;&#157;&#180;&#236;&#150;&#180; 1_4">
<path id="Vector_11" d="M103.78 373.778L103.249 372.292C103.239 372.263 103.224 372.236 103.204 372.214C103.184 372.191 103.16 372.173 103.132 372.16C103.105 372.147 103.075 372.14 103.045 372.139C103.014 372.138 102.984 372.143 102.956 372.154L96.1676 374.591C96.111 374.611 96.0588 374.641 96.0141 374.681C95.9694 374.72 95.933 374.768 95.9072 374.822C95.8814 374.876 95.8667 374.935 95.8639 374.994C95.861 375.054 95.8702 375.114 95.8908 375.17L96.4224 376.656L96.919 378.035L97.0691 378.459L102.214 392.8C101.078 392.071 99.711 391.77 97.672 392.502C94.9181 393.487 93.569 395.42 94.1374 397.003C94.7058 398.586 96.9715 399.22 99.7174 398.233C102.463 397.246 103.609 395.392 103.043 393.8C103.03 393.765 103.014 393.731 102.997 393.698V393.698L97.4968 378.308L104.293 375.873C104.349 375.852 104.395 375.81 104.42 375.756C104.445 375.702 104.448 375.64 104.428 375.584V375.584C104.418 375.556 104.403 375.53 104.383 375.508C104.363 375.486 104.339 375.468 104.312 375.455C104.285 375.442 104.256 375.435 104.226 375.433C104.196 375.431 104.167 375.436 104.139 375.446L97.3466 377.884L96.8642 376.499L103.646 374.067C103.674 374.057 103.7 374.042 103.722 374.022C103.744 374.002 103.761 373.978 103.774 373.951C103.787 373.924 103.794 373.895 103.795 373.865C103.796 373.836 103.791 373.806 103.78 373.778V373.778Z" fill="url(#paint1_radial)"/>
</g>
</g>
<g id="note-3">
<g id="&#235;&#160;&#136;&#236;&#157;&#180;&#236;&#150;&#180; 1_5">
<path id="Vector_12" d="M89.5248 268.108L90.3256 266.748C90.3417 266.722 90.3524 266.694 90.357 266.664C90.3617 266.634 90.3601 266.603 90.3524 266.574C90.3447 266.544 90.3311 266.517 90.3124 266.493C90.2937 266.469 90.2703 266.449 90.2437 266.435L84.0235 262.784C83.9725 262.753 83.9158 262.732 83.8567 262.723C83.7976 262.714 83.7373 262.717 83.6794 262.732C83.6215 262.747 83.5671 262.773 83.5194 262.809C83.4718 262.845 83.4318 262.89 83.4019 262.942L82.6011 264.302L81.861 265.567L81.6317 265.953L73.915 279.092C73.7479 277.752 73.1033 276.51 71.235 275.413C68.7143 273.929 66.3656 274.132 65.5141 275.583C64.6627 277.033 65.6272 279.179 68.1445 280.655C70.6618 282.131 72.8192 281.823 73.6784 280.369C73.6969 280.336 73.7135 280.303 73.728 280.268V280.268L82.0214 266.185L88.245 269.844C88.2967 269.874 88.3581 269.882 88.4158 269.867C88.4734 269.851 88.5227 269.814 88.5529 269.762V269.762C88.5682 269.737 88.5784 269.708 88.5827 269.679C88.587 269.649 88.5855 269.619 88.5781 269.591C88.5708 269.562 88.5578 269.535 88.5399 269.511C88.522 269.487 88.4996 269.467 88.4739 269.452L82.2508 265.798L83.0048 264.541L89.2169 268.19C89.2423 268.205 89.2706 268.215 89.3 268.219C89.3294 268.224 89.3593 268.222 89.388 268.214C89.4167 268.207 89.4436 268.193 89.4671 268.175C89.4906 268.157 89.5102 268.134 89.5248 268.108V268.108Z" fill="url(#paint2_radial)"/>
</g>
</g>
<g id="note-4">
<g id="&#235;&#160;&#136;&#236;&#157;&#180;&#236;&#150;&#180; 1_6">
<path id="Vector_13" d="M92.6096 354.498L93.7582 352.547C93.7814 352.51 93.7967 352.469 93.8033 352.426C93.81 352.383 93.8077 352.339 93.7967 352.297C93.7857 352.255 93.7662 352.215 93.7394 352.181C93.7125 352.147 93.679 352.119 93.6408 352.098L84.7192 346.861C84.6461 346.817 84.5648 346.787 84.48 346.774C84.3953 346.761 84.3088 346.766 84.2257 346.787C84.1426 346.808 84.0646 346.845 83.9963 346.897C83.9279 346.949 83.8707 347.014 83.8278 347.088L82.6792 349.039L81.6177 350.853L81.2887 351.407L70.2209 370.251C69.9812 368.33 69.0567 366.548 66.377 364.975C62.7616 362.847 59.3929 363.138 58.1717 365.218C56.9506 367.299 58.3338 370.377 61.9443 372.494C65.5548 374.611 68.6493 374.168 69.8815 372.083C69.9081 372.036 69.9319 371.988 69.9527 371.939V371.939L81.8477 351.74L90.7741 356.987C90.8482 357.03 90.9363 357.042 91.019 357.02C91.1017 356.998 91.1725 356.944 91.2157 356.871V356.871C91.2377 356.834 91.2522 356.793 91.2584 356.751C91.2647 356.709 91.2624 356.666 91.2519 356.624C91.2414 356.583 91.2227 356.544 91.1971 356.509C91.1714 356.475 91.1392 356.447 91.1024 356.425L82.1767 351.185L83.2582 349.381L92.1681 354.615C92.2046 354.637 92.2451 354.651 92.2872 354.657C92.3294 354.663 92.3723 354.661 92.4135 354.65C92.4547 354.639 92.4933 354.62 92.5269 354.594C92.5606 354.568 92.5887 354.535 92.6096 354.498V354.498Z" fill="url(#paint3_radial)"/>
</g>
</g>
<g id="main-car">
<g id="&#235;&#160;&#136;&#236;&#157;&#180;&#236;&#150;&#180; 1_7">
<path id="Vector_14" d="M252.12 382L239.77 394.24C237.263 393.413 234.64 392.995 232 393C225.37 393 219.011 395.634 214.322 400.322C209.634 405.011 207 411.37 207 418C207 418.5 207 419 207 419.5H191.51L178 385.36L224 366L252.12 382Z" fill="#3A3A3A"/>
<path id="Vector_15" d="M141.13 403H124.87C122.733 403 121 404.733 121 406.87V411.13C121 413.267 122.733 415 124.87 415H141.13C143.267 415 145 413.267 145 411.13V406.87C145 404.733 143.267 403 141.13 403Z" fill="#3A3A3A"/>
<path id="Vector_16" d="M386 382L373.5 394.24C369.725 393.012 365.713 392.69 361.79 393.297C357.867 393.905 354.142 395.426 350.915 397.739C347.687 400.051 345.049 403.089 343.212 406.609C341.375 410.128 340.392 414.03 340.34 418C340.34 418.5 340.34 419 340.34 419.5H324.67L311 385.36L357.55 366L386 382Z" fill="#3A3A3A"/>
<path id="Vector_17" d="M171.81 419H140.19C138.548 419 136.974 418.348 135.813 417.187C134.652 416.026 134 414.452 134 412.81L131 392.19C131 390.548 131.652 388.974 132.813 387.813C133.974 386.652 135.548 386 137.19 386H171.81C173.452 386 175.026 386.652 176.187 387.813C177.348 388.974 178 390.548 178 392.19V412.81C178 414.452 177.348 416.026 176.187 417.187C175.026 418.348 173.452 419 171.81 419V419Z" fill="#F7F8F9"/>
<path id="Vector_18" d="M410.98 314.51C404.005 314.51 398.35 320.165 398.35 327.14C398.35 334.115 404.005 339.77 410.98 339.77H419.75C426.725 339.77 432.38 334.115 432.38 327.14C432.38 320.165 426.725 314.51 419.75 314.51H410.98Z" fill="#F7F8F9"/>
<path id="Vector_19" d="M141.76 353H150.46C151.665 353.003 152.82 353.483 153.671 354.336C154.522 355.189 155 356.345 155 357.55V377.46C154.997 378.665 154.517 379.82 153.664 380.671C152.811 381.522 151.655 382 150.45 382H137.55C136.952 382 136.361 381.882 135.809 381.654C135.257 381.425 134.755 381.09 134.333 380.667C133.91 380.245 133.575 379.743 133.346 379.191C133.118 378.639 133 378.048 133 377.45V361.75C133.003 359.428 133.927 357.203 135.569 355.562C137.212 353.922 139.438 353 141.76 353V353Z" fill="#F94900"/>
<path id="Vector_20" d="M475.58 344.16L411.1 320.5L364.26 248.77C361.28 240.55 352.8 235 343.24 235H207C197.2 235 188.57 240.83 185.79 249.33L141.5 344.84C139.846 349.889 139.002 355.167 139 360.48V399.48C139 410.53 148.9 419.48 161.12 419.48H191.51C191.51 419.35 191.51 419.23 191.51 419.1C191.51 410.992 194.731 403.217 200.464 397.484C206.197 391.751 213.972 388.53 222.08 388.53C230.188 388.53 237.963 391.751 243.696 397.484C249.429 403.217 252.65 410.992 252.65 419.1C252.65 419.23 252.65 419.35 252.65 419.48H324.9C324.9 419.28 324.9 419.08 324.9 418.87C325.203 410.959 328.562 403.474 334.272 397.991C339.982 392.507 347.596 389.452 355.513 389.469C363.429 389.486 371.031 392.573 376.717 398.081C382.403 403.589 385.731 411.088 386 419C386 419.16 386 419.31 386 419.46H466.39C478.61 419.46 488.51 410.51 488.51 399.46V362.35C488.5 354.52 483.45 347.41 475.58 344.16Z" fill="url(#paint4_linear)"/>
<path id="Vector_21" d="M472.7 351.52H393.3C389.268 351.52 386 354.788 386 358.82V374.22C386 378.252 389.268 381.52 393.3 381.52H472.7C476.732 381.52 480 378.252 480 374.22V358.82C480 354.788 476.732 351.52 472.7 351.52Z" fill="#A2CBFC"/>
<path id="Vector_22" d="M205 247.52L227.91 320H168.2L195.69 256.91C197.63 252.34 198.69 248.91 204.99 247.52H205Z" fill="#3A3A3A"/>
<path id="Vector_23" d="M285.05 320H240.3L217.16 246.91H261.9L285.05 320Z" fill="#3A3A3A"/>
<path id="Vector_24" d="M399 320H296.43L273.29 246.91H350.53C351.078 246.906 351.616 247.052 352.087 247.332C352.558 247.613 352.943 248.016 353.2 248.5L399 320Z" fill="#DEECFC"/>
<path id="Vector_25" d="M370.15 320H399L353.06 248.24C352.843 247.838 352.521 247.501 352.129 247.267C351.736 247.033 351.287 246.91 350.83 246.91H329.27L370.15 320Z" fill="#3A3A3A"/>
<path id="Vector_26" d="M294.49 246.91H273.29L296.43 320H335.37L294.49 246.91Z" fill="#3A3A3A"/>
<path id="Vector_27" d="M356.98 320H364.59L323.71 246.91H316.1L356.98 320Z" fill="#3A3A3A"/>
<path id="Vector_28" d="M271 314.51C264.025 314.51 258.37 320.165 258.37 327.14C258.37 334.115 264.025 339.77 271 339.77H279.77C286.745 339.77 292.4 334.115 292.4 327.14C292.4 320.165 286.745 314.51 279.77 314.51H271Z" fill="#F7F8F9"/>
<path id="Vector_29" d="M192.09 343.11H157.95C156.321 343.11 155 344.429 155 346.055C155 347.681 156.321 349 157.95 349H192.09C193.719 349 195.04 347.681 195.04 346.055C195.04 344.429 193.719 343.11 192.09 343.11Z" fill="#F7F8F9"/>
<path id="Vector_30" d="M408.53 377C407.233 377.307 405.879 377.273 404.6 376.9C402.721 376.276 401.031 375.187 399.686 373.734C398.341 372.281 397.386 370.512 396.91 368.59C395.29 362.92 397.7 357.4 402.28 356.08C402.38 356.041 402.484 356.011 402.59 355.99C407.38 354.83 412.59 358.59 414.22 364.39C415.85 370.19 413.32 375.87 408.53 377Z" fill="#3A3A3A"/>
<path id="Vector_31" d="M404.6 376.93C402.721 376.306 401.031 375.217 399.686 373.764C398.341 372.311 397.386 370.542 396.91 368.62C395.29 362.95 397.7 357.43 402.28 356.11C404.152 356.743 405.836 357.836 407.178 359.287C408.52 360.739 409.476 362.504 409.96 364.42C411.56 370.08 409.17 375.6 404.6 376.93Z" fill="#F7F8F9"/>
<path id="Vector_32" d="M406.33 362.765C406.738 362.583 406.794 361.818 406.454 361.056C406.114 360.295 405.507 359.825 405.099 360.008C404.69 360.19 404.635 360.955 404.975 361.717C405.315 362.478 405.921 362.948 406.33 362.765Z" fill="white"/>
<path id="Vector_33" d="M463.23 377C461.93 377.307 460.573 377.273 459.29 376.9C455.86 375.9 452.79 372.81 451.6 368.59C449.99 362.92 452.39 357.4 456.98 356.08C457.08 356.038 457.184 356.008 457.29 355.99C462.07 354.83 467.29 358.59 468.91 364.39C470.53 370.19 468 375.87 463.23 377Z" fill="#3A3A3A"/>
<path id="Vector_34" d="M459.29 376.93C455.86 375.93 452.79 372.84 451.6 368.62C449.99 362.95 452.39 357.43 456.98 356.11C458.85 356.745 460.532 357.839 461.871 359.29C463.211 360.742 464.166 362.505 464.65 364.42C466.25 370.08 463.86 375.6 459.29 376.93Z" fill="#F7F8F9"/>
<path id="Vector_35" d="M461.018 362.759C461.427 362.576 461.482 361.811 461.142 361.05C460.802 360.288 460.196 359.819 459.787 360.001C459.379 360.183 459.323 360.949 459.663 361.71C460.003 362.472 460.61 362.941 461.018 362.759Z" fill="white"/>
<path id="Vector_36" d="M486.13 394H387.87C382.971 394 379 397.971 379 402.87V412.61C379 417.509 382.971 421.48 387.87 421.48H486.13C491.029 421.48 495 417.509 495 412.61V402.87C495 397.971 491.029 394 486.13 394Z" fill="#F7F8F9"/>
<path id="Vector_37" d="M466.36 387.66H428.84C427.194 387.66 425.86 388.994 425.86 390.64V404.23C425.86 405.876 427.194 407.21 428.84 407.21H466.36C468.006 407.21 469.34 405.876 469.34 404.23V390.64C469.34 388.994 468.006 387.66 466.36 387.66Z" fill="#3A3A3A"/>
<path id="Vector_38" d="M441.46 400L440.82 398.22H438.36L437.73 400H436.63L439.03 393.55H440.17L442.58 400H441.46ZM440.54 397.31L439.94 395.56C439.94 395.45 439.83 395.26 439.76 395.01C439.69 394.76 439.63 394.57 439.6 394.46C439.506 394.86 439.389 395.254 439.25 395.64L438.67 397.31H440.54Z" fill="white"/>
<path id="Vector_39" d="M443.42 400V393.6H444.47V400H443.42Z" fill="white"/>
<path id="Vector_40" d="M449.88 398.28C449.891 398.537 449.841 398.792 449.733 399.025C449.625 399.258 449.463 399.462 449.26 399.62C448.762 399.972 448.159 400.145 447.55 400.11C446.935 400.134 446.323 400.018 445.76 399.77V398.77C446.062 398.908 446.377 399.015 446.7 399.09C447.001 399.167 447.31 399.207 447.62 399.21C447.945 399.234 448.268 399.15 448.54 398.97C448.635 398.896 448.712 398.8 448.762 398.691C448.813 398.581 448.836 398.461 448.83 398.34C448.832 398.225 448.809 398.11 448.763 398.005C448.716 397.9 448.647 397.806 448.56 397.73C448.22 397.473 447.842 397.27 447.44 397.13C446.964 396.971 446.537 396.692 446.2 396.32C445.956 396.006 445.828 395.617 445.84 395.22C445.829 394.98 445.875 394.741 445.975 394.522C446.074 394.303 446.223 394.111 446.41 393.96C446.849 393.629 447.391 393.463 447.94 393.49C448.575 393.496 449.202 393.635 449.78 393.9L449.45 394.76C448.968 394.542 448.448 394.42 447.92 394.4C447.642 394.38 447.366 394.458 447.14 394.62C447.056 394.691 446.99 394.78 446.945 394.881C446.9 394.981 446.878 395.09 446.88 395.2C446.874 395.35 446.908 395.498 446.98 395.63C447.071 395.767 447.19 395.883 447.33 395.97C447.61 396.129 447.901 396.269 448.2 396.39C448.555 396.531 448.891 396.716 449.2 396.94C449.403 397.089 449.567 397.285 449.68 397.51C449.804 397.748 449.873 398.011 449.88 398.28V398.28Z" fill="white"/>
<path id="Vector_41" d="M453.9 400L452 394.66C452.05 395.45 452.07 396.2 452.07 396.9V400H451.12V393.6H452.6L454.38 398.71L456.22 393.6H457.7V400H456.7V396.82C456.7 396.5 456.7 396.09 456.7 395.58C456.7 395.07 456.7 394.75 456.7 394.64L454.82 400H453.9Z" fill="white"/>
<path id="Vector_42" d="M219.05 343.11H208.68C207.051 343.11 205.73 344.429 205.73 346.055C205.73 347.681 207.051 349 208.68 349H219.05C220.679 349 222 347.681 222 346.055C222 344.429 220.679 343.11 219.05 343.11Z" fill="#F7F8F9"/>
</g>
</g>
</g>
<defs>
<radialGradient id="paint0_radial" cx="0" cy="0" r="1" gradientUnits="userSpaceOnUse" gradientTransform="translate(30.3735 316.217) rotate(-33.5481) scale(30.1489)">
<stop stop-color="#8D8D8D"/>
<stop offset="1"/>
</radialGradient>
<radialGradient id="paint1_radial" cx="0" cy="0" r="1" gradientUnits="userSpaceOnUse" gradientTransform="translate(96.4697 389.822) rotate(-19.7221) scale(9.8664)">
<stop stop-color="#8D8D8D"/>
<stop offset="1"/>
</radialGradient>
<radialGradient id="paint2_radial" cx="0" cy="0" r="1" gradientUnits="userSpaceOnUse" gradientTransform="translate(72.5221 272.773) rotate(30.4388) scale(9.8664)">
<stop stop-color="#8D8D8D"/>
<stop offset="1"/>
</radialGradient>
<radialGradient id="paint3_radial" cx="0" cy="0" r="1" gradientUnits="userSpaceOnUse" gradientTransform="translate(68.2231 361.189) rotate(30.4388) scale(14.1512)">
<stop stop-color="#8D8D8D"/>
<stop offset="1"/>
</radialGradient>
<linearGradient id="paint4_linear" x1="372.54" y1="217.63" x2="292.86" y2="433.89" gradientUnits="userSpaceOnUse">
<stop stop-color="#A5ECFC"/>
<stop offset="0.27" stop-color="#8ED4FD"/>
<stop offset="0.75" stop-color="#68ADFE"/>
<stop offset="1" stop-color="#5A9EFF"/>
</linearGradient>
</defs>
</svg>
